<svg id="visual" viewBox="0 0 900 600" width="900" height="600" xmlns="http://www.w3.org/2000/svg" xmlns:xlink="http://www.w3.org/1999/xlink" version="1.1"><path d="M0 374L21.5 379C43 384 86 394 128.8 396.8C171.7 399.7 214.3 395.3 257.2 388.8C300 382.3 343 373.7 385.8 375C428.7 376.3 471.3 387.7 514.2 388.2C557 388.7 600 378.3 642.8 383C685.7 387.7 728.3 407.3 771.2 408.8C814 410.3 857 393.7 878.5 385.3L900 377L900 601L878.5 601C857 601 814 601 771.2 601C728.3 601 685.7 601 642.8 601C600 601 557 601 514.2 601C471.3 601 428.7 601 385.8 601C343 601 300 601 257.2 601C214.3 601 171.7 601 128.8 601C86 601 43 601 21.5 601L0 601Z" fill="#69cefa"></path><path d="M0 457L21.5 449C43 441 86 425 128.8 426.5C171.7 428 214.3 447 257.2 452.7C300 458.3 343 450.7 385.8 445.8C428.7 441 471.3 439 514.2 436.8C557 434.7 600 432.3 642.8 429C685.7 425.7 728.3 421.3 771.2 421.2C814 421 857 425 878.5 427L900 429L900 601L878.5 601C857 601 814 601 771.2 601C728.3 601 685.7 601 642.8 601C600 601 557 601 514.2 601C471.3 601 428.7 601 385.8 601C343 601 300 601 257.2 601C214.3 601 171.7 601 128.8 601C86 601 43 601 21.5 601L0 601Z" fill="#1aadfa"></path><path d="M0 487L21.5 485C43 483 86 479 128.8 477.2C171.7 475.3 214.3 475.7 257.2 472.7C300 469.7 343 463.3 385.8 464.2C428.7 465 471.3 473 514.2 476.2C557 479.3 600 477.7 642.8 477C685.7 476.3 728.3 476.7 771.2 480.2C814 483.7 857 490.3 878.5 493.7L900 497L900 601L878.5 601C857 601 814 601 771.2 601C728.3 601 685.7 601 642.8 601C600 601 557 601 514.2 601C471.3 601 428.7 601 385.8 601C343 601 300 601 257.2 601C214.3 601 171.7 601 128.8 601C86 601 43 601 21.5 601L0 601Z" fill="#0087f3"></path><path d="M0 510L21.5 507.2C43 504.3 86 498.7 128.8 495.5C171.7 492.3 214.3 491.7 257.2 494.2C300 496.7 343 502.3 385.8 508.5C428.7 514.7 471.3 521.3 514.2 523.8C557 526.3 600 524.7 642.8 518.8C685.7 513 728.3 503 771.2 503C814 503 857 513 878.5 518L900 523L900 601L878.5 601C857 601 814 601 771.2 601C728.3 601 685.7 601 642.8 601C600 601 557 601 514.2 601C471.3 601 428.7 601 385.8 601C343 601 300 601 257.2 601C214.3 601 171.7 601 128.8 601C86 601 43 601 21.5 601L0 601Z" fill="#005de2"></path><path d="M0 529L21.5 535.2C43 541.3 86 553.7 128.8 553.8C171.7 554 214.3 542 257.2 536.2C300 530.3 343 530.7 385.8 535.5C428.7 540.3 471.3 549.7 514.2 551.8C557 554 600 549 642.8 547.3C685.7 545.7 728.3 547.3 771.2 549.3C814 551.3 857 553.7 878.5 554.8L900 556L900 601L878.5 601C857 601 814 601 771.2 601C728.3 601 685.7 601 642.8 601C600 601 557 601 514.2 601C471.3 601 428.7 601 385.8 601C343 601 300 601 257.2 601C214.3 601 171.7 601 128.8 601C86 601 43 601 21.5 601L0 601Z" fill="#2429c7"></path></svg>