<svg id="visual" viewBox="0 0 900 600" width="900" height="600" xmlns="http://www.w3.org/2000/svg" xmlns:xlink="http://www.w3.org/1999/xlink" version="1.1"><path d="M0 419L21.5 423.3C43 427.7 86 436.3 128.8 426.2C171.7 416 214.3 387 257.2 386.7C300 386.3 343 414.7 385.8 413.2C428.7 411.7 471.3 380.3 514.2 376C557 371.7 600 394.3 642.8 409.5C685.7 424.7 728.3 432.3 771.2 425.2C814 418 857 396 878.5 385L900 374L900 601L878.5 601C857 601 814 601 771.2 601C728.3 601 685.7 601 642.8 601C600 601 557 601 514.2 601C471.3 601 428.7 601 385.8 601C343 601 300 601 257.2 601C214.3 601 171.7 601 128.8 601C86 601 43 601 21.5 601L0 601Z" fill="#fa7268"></path><path d="M0 466L21.5 458.3C43 450.7 86 435.3 128.8 427.5C171.7 419.7 214.3 419.3 257.2 420.2C300 421 343 423 385.8 424.7C428.7 426.3 471.3 427.7 514.2 426.2C557 424.7 600 420.3 642.8 421.8C685.7 423.3 728.3 430.7 771.2 428.8C814 427 857 416 878.5 410.5L900 405L900 601L878.5 601C857 601 814 601 771.2 601C728.3 601 685.7 601 642.8 601C600 601 557 601 514.2 601C471.3 601 428.7 601 385.8 601C343 601 300 601 257.2 601C214.3 601 171.7 601 128.8 601C86 601 43 601 21.5 601L0 601Z" fill="#ef5f67"></path><path d="M0 442L21.5 444.8C43 447.7 86 453.3 128.8 463.3C171.7 473.3 214.3 487.7 257.2 485.5C300 483.3 343 464.7 385.8 455.3C428.7 446 471.3 446 514.2 451.3C557 456.7 600 467.3 642.8 477.8C685.7 488.3 728.3 498.7 771.2 502.8C814 507 857 505 878.5 504L900 503L900 601L878.5 601C857 601 814 601 771.2 601C728.3 601 685.7 601 642.8 601C600 601 557 601 514.2 601C471.3 601 428.7 601 385.8 601C343 601 300 601 257.2 601C214.3 601 171.7 601 128.8 601C86 601 43 601 21.5 601L0 601Z" fill="#e34c67"></path><path d="M0 509L21.5 513C43 517 86 525 128.8 522.5C171.7 520 214.3 507 257.2 501.7C300 496.3 343 498.7 385.8 505.8C428.7 513 471.3 525 514.2 525.8C557 526.7 600 516.3 642.8 515.8C685.7 515.3 728.3 524.7 771.2 520.8C814 517 857 500 878.5 491.5L900 483L900 601L878.5 601C857 601 814 601 771.2 601C728.3 601 685.7 601 642.8 601C600 601 557 601 514.2 601C471.3 601 428.7 601 385.8 601C343 601 300 601 257.2 601C214.3 601 171.7 601 128.8 601C86 601 43 601 21.5 601L0 601Z" fill="#d53867"></path><path d="M0 550L21.5 548.2C43 546.3 86 542.7 128.8 545.2C171.7 547.7 214.3 556.3 257.2 558.2C300 560 343 555 385.8 555.3C428.7 555.7 471.3 561.3 514.2 561.3C557 561.3 600 555.7 642.8 553C685.7 550.3 728.3 550.7 771.2 550.5C814 550.3 857 549.7 878.5 549.3L900 549L900 601L878.5 601C857 601 814 601 771.2 601C728.3 601 685.7 601 642.8 601C600 601 557 601 514.2 601C471.3 601 428.7 601 385.8 601C343 601 300 601 257.2 601C214.3 601 171.7 601 128.8 601C86 601 43 601 21.5 601L0 601Z" fill="#c62368"></path></svg>