<svg id="visual" viewBox="0 0 900 600" width="900" height="600" xmlns="http://www.w3.org/2000/svg" xmlns:xlink="http://www.w3.org/1999/xlink" version="1.1"><path d="M0 103L82 103L82 37L164 37L164 97L245 97L245 49L327 49L327 79L409 79L409 73L491 73L491 49L573 49L573 85L655 85L655 61L736 61L736 103L818 103L818 55L900 55L900 55L900 0L900 0L818 0L818 0L736 0L736 0L655 0L655 0L573 0L573 0L491 0L491 0L409 0L409 0L327 0L327 0L245 0L245 0L164 0L164 0L82 0L82 0L0 0Z" fill="#fa7268"></path><path d="M0 181L82 181L82 151L164 151L164 139L245 139L245 145L327 145L327 187L409 187L409 145L491 145L491 109L573 109L573 145L655 145L655 151L736 151L736 199L818 199L818 157L900 157L900 181L900 53L900 53L818 53L818 101L736 101L736 59L655 59L655 83L573 83L573 47L491 47L491 71L409 71L409 77L327 77L327 47L245 47L245 95L164 95L164 35L82 35L82 101L0 101Z" fill="#ea5e66"></path><path d="M0 301L82 301L82 295L164 295L164 397L245 397L245 313L327 313L327 283L409 283L409 373L491 373L491 337L573 337L573 379L655 379L655 337L736 337L736 337L818 337L818 409L900 409L900 355L900 179L900 155L818 155L818 197L736 197L736 149L655 149L655 143L573 143L573 107L491 107L491 143L409 143L409 185L327 185L327 143L245 143L245 137L164 137L164 149L82 149L82 179L0 179Z" fill="#d84a64"></path><path d="M0 385L82 385L82 379L164 379L164 451L245 451L245 367L327 367L327 337L409 337L409 475L491 475L491 445L573 445L573 457L655 457L655 469L736 469L736 457L818 457L818 517L900 517L900 439L900 353L900 407L818 407L818 335L736 335L736 335L655 335L655 377L573 377L573 335L491 335L491 371L409 371L409 281L327 281L327 311L245 311L245 395L164 395L164 293L82 293L82 299L0 299Z" fill="#c53762"></path><path d="M0 601L82 601L82 601L164 601L164 601L245 601L245 601L327 601L327 601L409 601L409 601L491 601L491 601L573 601L573 601L655 601L655 601L736 601L736 601L818 601L818 601L900 601L900 601L900 437L900 515L818 515L818 455L736 455L736 467L655 467L655 455L573 455L573 443L491 443L491 473L409 473L409 335L327 335L327 365L245 365L245 449L164 449L164 377L82 377L82 383L0 383Z" fill="#b0235f"></path></svg>