<svg id="visual" viewBox="0 0 900 600" width="900" height="600" xmlns="http://www.w3.org/2000/svg" xmlns:xlink="http://www.w3.org/1999/xlink" version="1.1"><rect x="0" y="0" width="900" height="600" fill="#140021"></rect><path d="M0 385L129 385L129 302L257 302L257 365L386 365L386 397L514 397L514 404L643 404L643 336L771 336L771 441L900 441L900 342L900 601L900 601L771 601L771 601L643 601L643 601L514 601L514 601L386 601L386 601L257 601L257 601L129 601L129 601L0 601Z" fill="#9900ff"></path><path d="M0 486L129 486L129 402L257 402L257 500L386 500L386 440L514 440L514 429L643 429L643 439L771 439L771 414L900 414L900 432L900 601L900 601L771 601L771 601L643 601L643 601L514 601L514 601L386 601L386 601L257 601L257 601L129 601L129 601L0 601Z" fill="#7700c6"></path><path d="M0 538L129 538L129 462L257 462L257 504L386 504L386 443L514 443L514 442L643 442L643 525L771 525L771 455L900 455L900 515L900 601L900 601L771 601L771 601L643 601L643 601L514 601L514 601L386 601L386 601L257 601L257 601L129 601L129 601L0 601Z" fill="#560090"></path></svg>